# xmcd
# 
# Track frame offsets:
#     150
#     11795
#     26420
#     41563
#     56144
#     67724
#     80497
#     94958
#     108650
#     122736
#     133199
#     147998
# 
# Disc length: 2178
# 
# Revision: 16
# Processed by: cddbd v1.5.2PL0 Copyright (c) Steve Scherf et al.
# Submitted via: fre:ac v1.0.31
# 
DISCID=a808800c
DTITLE=Miles Davis - Birth Of The Cool
DYEAR=1957
DGENRE=Jazz, Cool Jazz
TTITLE0=Move
TTITLE1=Jeru
TTITLE2=Moon Dreams
TTITLE3=Venus De Milo
TTITLE4=Budo
TTITLE5=Deception
TTITLE6=Godchild
TTITLE7=Boplicity
TTITLE8=Rocker
TTITLE9=Israel
TTITLE10=Rouge
TTITLE11=Darn That Dream
EXTD=CD 2001 - digitally remastered, 2000\nCapitol Records  7 24353 01172 7
EXTT0=
EXTT1=
EXTT2=
EXTT3=
EXTT4=
EXTT5=
EXTT6=
EXTT7=
EXTT8=
EXTT9=
EXTT10=
EXTT11=
PLAYORDER=
